<svg xmlns="http://www.w3.org/2000/svg" width="211" height="33" fill="none" viewBox="0 0 211 33"><path fill="#EB5E28" d="M163.776 17.0268H163.165L158.788 28.8307H157.656L162.404 16.0601H164.521L169.244 28.8286H168.131L163.776 17.0268ZM159.759 24.3411H167.199V25.3078H159.759V24.3411Z"/><path fill="#EB5E28" d="M172.678 15.7508H173.718V28.8286H172.678V15.7508Z"/><path fill="#EB5E28" d="M179.39 26.7121L179.481 26.6775V32.4776H178.441V19.7091H179.408L179.481 21.7158C179.748 21.1043 180.181 20.5799 180.731 20.2016C181.386 19.7656 182.161 19.5483 182.947 19.5809C183.71 19.5653 184.461 19.7619 185.119 20.1487C185.757 20.5411 186.272 21.1053 186.604 21.7768C186.979 22.5518 187.164 23.4052 187.142 24.2658C187.162 25.1198 186.985 25.9669 186.623 26.7405C186.301 27.411 185.795 27.9758 185.164 28.3687C184.495 28.7691 183.726 28.9716 182.947 28.9528C182.135 28.9853 181.333 28.7586 180.658 28.3056C180.086 27.9122 179.645 27.3575 179.39 26.7121ZM186.03 24.2699C186.03 23.1275 185.733 22.2218 185.137 21.5529C184.837 21.2229 184.468 20.9625 184.057 20.7903C183.646 20.618 183.202 20.5379 182.756 20.5557C182.159 20.5466 181.572 20.7045 181.061 21.0116C180.559 21.3196 180.156 21.7663 179.903 22.2978C179.616 22.9168 179.476 23.594 179.496 24.276C179.48 24.9564 179.623 25.6311 179.915 26.246C180.171 26.7786 180.572 27.228 181.073 27.5424C181.587 27.8517 182.178 28.0097 182.778 27.9983C183.776 27.9983 184.569 27.6638 185.159 26.9949C185.75 26.3261 186.04 25.417 186.03 24.2678V24.2699Z"/><path fill="#EB5E28" d="M192.067 17.6658C191.963 17.6688 191.86 17.6508 191.764 17.613C191.668 17.5753 191.581 17.5185 191.507 17.446C191.433 17.3742 191.376 17.2879 191.337 17.1927C191.299 17.0974 191.28 16.9952 191.283 16.8925C191.278 16.7883 191.295 16.6842 191.333 16.5869C191.37 16.4896 191.428 16.4012 191.502 16.3275C191.575 16.2537 191.664 16.1962 191.761 16.1585C191.858 16.1209 191.962 16.104 192.067 16.1089C192.169 16.1086 192.27 16.1288 192.364 16.1683C192.459 16.2078 192.544 16.2657 192.616 16.3388C192.687 16.4118 192.743 16.4984 192.781 16.5935C192.818 16.6886 192.836 16.7903 192.834 16.8925C192.836 16.9946 192.817 17.0961 192.778 17.1904C192.739 17.2848 192.68 17.3698 192.606 17.4399C192.536 17.5116 192.452 17.5686 192.359 17.6074C192.266 17.6462 192.167 17.666 192.067 17.6658ZM191.537 19.701H192.555V28.8205H191.537V19.701Z"/><path fill="#EB5E28" d="M197.558 19.7091H198.524L198.579 21.3678C198.819 20.826 199.216 20.3688 199.719 20.0551C200.279 19.7246 200.921 19.5601 201.571 19.5809C202.204 19.5689 202.829 19.7233 203.384 20.0286C203.923 20.3364 204.356 20.8006 204.626 21.3596C204.947 22.0658 205.1 22.8371 205.071 23.6125V28.8286H204.031V23.7224C204.031 22.6886 203.801 21.8976 203.339 21.3494C202.878 20.8013 202.234 20.5299 201.406 20.5354C200.531 20.5354 199.844 20.8271 199.344 21.4105C198.845 21.9939 198.596 22.8622 198.598 24.0155V28.8307H197.558V19.7091Z"/><path fill="#EB5E28" d="M210.198 28.8999C210.091 28.903 209.985 28.8834 209.886 28.8424C209.787 28.8013 209.698 28.7398 209.624 28.6617C209.477 28.5035 209.395 28.2951 209.395 28.0787C209.395 27.8622 209.477 27.6539 209.624 27.4956C209.698 27.4176 209.787 27.356 209.886 27.315C209.985 27.2739 210.091 27.2543 210.198 27.2575C210.304 27.2565 210.408 27.2771 210.506 27.318C210.603 27.359 210.691 27.4194 210.764 27.4956C210.915 27.652 211 27.8611 211 28.0787C211 28.2963 210.915 28.5054 210.764 28.6617C210.691 28.738 210.603 28.7984 210.506 28.8393C210.408 28.8803 210.304 28.9009 210.198 28.8999Z"/><path fill="#EB5E28" d="M6.52266 1.32966H0V29.2153H6.52266V1.32966Z"/><path fill="#EB5E28" d="M14.0674 29.2133V1.32966H29.677L36.8366 8.48932V1.32966H43.3613V29.2133H36.8366V16.3165L27.7334 7.21328H20.5921V29.2133H14.0674Z"/><path fill="#EB5E28" d="M74.1916 5.12115C67.9437 -1.12677 58.4314 -1.74342 52.9466 3.74335C47.4619 9.23012 48.0765 18.7404 54.3244 24.9883C60.5723 31.2362 70.0846 31.8529 75.5694 26.3661C81.0541 20.8793 80.4395 11.367 74.1916 5.12115ZM73.235 24.0318C70.8783 26.3905 64.9479 24.2821 59.9883 19.3245C55.0286 14.3668 52.9141 8.43437 55.2809 6.07767C57.6478 3.72096 63.5681 5.82734 68.5277 10.787C73.4874 15.7467 75.5938 21.6751 73.235 24.0318Z"/><path fill="#EB5E28" d="M81.9902 1.32966H88.5088L94.889 18.8523H95.4528L96.914 22.8656L104.753 1.32966H111.276L101.127 29.2133H92.1395L81.9902 1.32966Z"/><path fill="#EB5E28" d="M119.083 29.2133H112.559L122.708 1.32966H131.701L141.851 29.2133H135.328L127.32 7.21328H127.09L119.083 29.2133Z"/><path fill="#EB5E28" d="M122.641 18.8523H128.166L135.328 23.3296H121.066L122.641 18.8523Z"/></svg>