<svg width="537" height="523" viewBox="0 0 537 523" fill="none" xmlns="http://www.w3.org/2000/svg">
<path d="M13.6393 0H102.49C104.828 0 106.777 0.389672 108.725 1.55876L411.129 159.775C420.092 164.451 431.393 157.827 431.393 147.694V13.6393C431.393 6.23512 437.628 0 445.032 0H523.361C530.765 0 537 6.23512 537 13.6393V508.552C537 515.957 530.765 522.192 523.361 522.192H445.422C438.017 522.192 431.782 515.957 431.782 508.552V291.102C431.782 286.036 429.054 281.36 424.378 279.022L125.872 123.923C116.909 119.247 105.607 125.872 105.607 136.004V508.942C105.607 516.346 99.3723 522.581 91.9681 522.581H13.6393C6.23514 522.581 0 516.346 0 508.942V14.0291C0 6.23515 6.23514 0 13.6393 0Z" fill="black"/>
</svg>
