<?xml version="1.0" encoding="utf-8"?>
<!-- Generator: Adobe Illustrator 25.2.1, SVG Export Plug-In . SVG Version: 6.00 Build 0)  -->
<svg version="1.1" id="Camada_1" xmlns="http://www.w3.org/2000/svg" xmlns:xlink="http://www.w3.org/1999/xlink" x="0px" y="0px"
	 viewBox="0 0 1000 1000" style="enable-background:new 0 0 1000 1000;" xml:space="preserve">
<style type="text/css">
	.st0{display:none;fill:#545454;}
	.st1{display:none;}
	.st2{font-family:'KronaOne-Regular';}
	.st3{font-size:100px;}
	.st4{display:inline;}
</style>
<rect x="339" y="230" class="st0" width="15" height="74"/>
<rect x="433" y="229" class="st0" width="15" height="74"/>
<rect x="535" y="230" class="st0" width="15" height="74"/>
<rect x="630" y="229" class="st0" width="15" height="74"/>
<text transform="matrix(1 0 0 1 388.3193 483.2979)" class="st1 st2 st3">inova</text>
<rect x="513" y="571" class="st1" width="33" height="3"/>
<g>
	<g>
		<path d="M160.4,432.9h20.3c1.9,0,3.5,1.6,3.5,3.5v127c0,1.9-1.6,3.5-3.5,3.5h-20.3c-1.9,0-3.5-1.6-3.5-3.5v-127
			C156.9,434.5,158.5,432.9,160.4,432.9z"/>
		<path d="M215.2,432.9H238c0.6,0,1.1,0.1,1.6,0.4l77.6,40.6c2.3,1.2,5.2-0.5,5.2-3.1v-34.4c0-1.9,1.6-3.5,3.5-3.5h20.1
			c1.9,0,3.5,1.6,3.5,3.5v127c0,1.9-1.6,3.5-3.5,3.5H326c-1.9,0-3.5-1.6-3.5-3.5v-55.8c0-1.3-0.7-2.5-1.9-3.1L244,464.7
			c-2.3-1.2-5.2,0.5-5.2,3.1v95.7c0,1.9-1.6,3.5-3.5,3.5h-20.1c-1.9,0-3.5-1.6-3.5-3.5v-127C211.7,434.5,213.3,432.9,215.2,432.9z"
			/>
		<path d="M524,471.8c-3.7-8.4-8.9-15.6-15.7-21.7c-6.7-6-14.8-10.7-24.2-14c-9.4-3.3-19.9-5-31.2-5c-11.4,0-21.9,1.7-31.3,5
			c-9.4,3.3-17.5,8-24.2,14c-6.7,6-11.9,13.2-15.7,21.7c-3.7,8.4-5.6,17.7-5.6,27.8c0,10.2,1.9,19.5,5.6,28
			c3.7,8.5,8.9,15.8,15.7,21.9c6.7,6.1,14.8,10.9,24.2,14.3c9.4,3.4,19.8,5.1,31.3,5.1c11.4,0,21.8-1.7,31.2-5.1
			c9.4-3.4,17.5-8.2,24.2-14.3c6.7-6.1,11.9-13.4,15.7-21.9c3.7-8.5,5.6-17.8,5.6-28C529.5,489.4,527.7,480.2,524,471.8z
			 M498.5,518.3c-2.5,5.6-6,10.3-10.4,14.2c-4.4,3.9-9.6,6.9-15.7,9c-6,2.1-12.6,3.2-19.7,3.2c-7.1,0-13.7-1.1-19.7-3.2
			c-6-2.1-11.3-5.1-15.7-9c-4.4-3.9-7.9-8.6-10.4-14.2c-2.5-5.6-3.7-11.8-3.7-18.7c0-6.9,1.2-13.1,3.7-18.6
			c2.5-5.5,5.9-10.1,10.4-13.9c4.4-3.8,9.7-6.7,15.7-8.7c6-2,12.6-3,19.7-3c7.1,0,13.6,1,19.7,3c6,2,11.3,4.9,15.7,8.7
			c4.4,3.8,7.9,8.4,10.4,13.9c2.5,5.5,3.8,11.7,3.8,18.6C502.3,506.5,501.1,512.7,498.5,518.3z"/>
		<path d="M559.5,432.9h22.4c1.4,0,2.7,0.9,3.3,2.2l38,92.2c1.2,2.9,5.3,2.9,6.5,0l38-92.2c0.5-1.3,1.8-2.2,3.3-2.2h22.4
			c2.5,0,4.2,2.6,3.2,4.9l-55.7,127c-0.6,1.3-1.8,2.1-3.2,2.1h-22.3c-1.4,0-2.7-0.8-3.2-2.1l-55.7-127
			C555.2,435.5,556.9,432.9,559.5,432.9z"/>
		<path d="M780.1,435.3h-23.6c-1.3,0-2.6,0.8-3.1,2l-57.8,123.1c-1.1,2.3,0.6,4.9,3.1,4.9h20.1c1.3,0,2.6-0.8,3.1-2l8.2-17.9
			c0.6-1.2,1.8-2,3.1-2h71.5c1.3,0,2.5,0.8,3.1,2l8.5,17.9c0.6,1.2,1.8,2,3.1,2h20c2.5,0,4.2-2.7,3.1-5l-59.5-123.1
			C782.6,436.1,781.4,435.3,780.1,435.3z M742.7,518.7l22.7-49c1.3-2.7,5.2-2.8,6.4,0l23.3,49c1.1,2.4-0.6,5.1-3.2,5.1h-46
			C743.3,523.8,741.6,521.1,742.7,518.7z"/>
	</g>
	<g>
		<path d="M215.2,432.9H238c0.6,0,1.1,0.1,1.6,0.4l77.6,40.6c2.3,1.2,5.2-0.5,5.2-3.1v-34.4c0-1.9,1.6-3.5,3.5-3.5h20.1
			c1.9,0,3.5,1.6,3.5,3.5v127c0,1.9-1.6,3.5-3.5,3.5H326c-1.9,0-3.5-1.6-3.5-3.5v-55.8c0-1.3-0.7-2.5-1.9-3.1L244,464.7
			c-2.3-1.2-5.2,0.5-5.2,3.1v95.7c0,1.9-1.6,3.5-3.5,3.5h-20.1c-1.9,0-3.5-1.6-3.5-3.5v-127C211.7,434.5,213.3,432.9,215.2,432.9z"
			/>
		<g class="st1">
			<path class="st4" d="M267.2,517.1v-7.3c0-0.4,0.3-0.8,0.8-0.8h49.4c0.4,0,0.8,0.3,0.8,0.8v7.3c0,0.4-0.3,0.8-0.8,0.8h-49.4
				C267.5,517.9,267.2,517.5,267.2,517.1z"/>
			<path class="st4" d="M267.2,531.2v-7.3c0-0.4,0.3-0.8,0.8-0.8h49.4c0.4,0,0.8,0.3,0.8,0.8v7.3c0,0.4-0.3,0.8-0.8,0.8h-49.4
				C267.5,531.9,267.2,531.6,267.2,531.2z"/>
			<path class="st4" d="M267.2,545.2V538c0-0.4,0.3-0.8,0.8-0.8h49.4c0.4,0,0.8,0.3,0.8,0.8v7.3c0,0.4-0.3,0.8-0.8,0.8h-49.4
				C267.5,546,267.2,545.7,267.2,545.2z"/>
			<path class="st4" d="M267.2,559.3V552c0-0.4,0.3-0.8,0.8-0.8h49.4c0.4,0,0.8,0.3,0.8,0.8v7.3c0,0.4-0.3,0.8-0.8,0.8h-49.4
				C267.5,560,267.2,559.7,267.2,559.3z"/>
		</g>
	</g>
</g>
</svg>
