<svg width="36" height="24" viewBox="0 0 36 24" fill="none" xmlns="http://www.w3.org/2000/svg">
<path d="M4.91382 1.3915C4.02547 0.334522 2.44847 0.197826 1.3915 1.08618C0.334522 1.97453 0.197826 3.55153 1.08618 4.6085L4.91382 1.3915ZM18 20.8472L16.0862 22.4557C16.5612 23.0209 17.2617 23.3472 18 23.3472C18.7383 23.3472 19.4388 23.0209 19.9138 22.4557L18 20.8472ZM34.9138 4.6085C35.8022 3.55153 35.6655 1.97453 34.6085 1.08618C33.5515 0.197826 31.9745 0.334522 31.0862 1.3915L34.9138 4.6085ZM1.08618 4.6085L16.0862 22.4557L19.9138 19.2387L4.91382 1.3915L1.08618 4.6085ZM19.9138 22.4557L34.9138 4.6085L31.0862 1.3915L16.0862 19.2387L19.9138 22.4557Z" fill="white"/>
</svg>
